<?xml version="1.0" standalone="no"?>
<!DOCTYPE svg PUBLIC "-//W3C//DTD SVG 20010904//EN"
 "http://www.w3.org/TR/2001/REC-SVG-20010904/DTD/svg10.dtd">
<svg version="1.0" xmlns="http://www.w3.org/2000/svg"
 width="244.000000pt" height="244.000000pt" viewBox="0 0 244.000000 244.000000"
 preserveAspectRatio="xMidYMid meet">
<metadata>
Created by potrace 1.11, written by Peter Selinger 2001-2013
</metadata>
<g transform="translate(0.000000,244.000000) scale(0.100000,-0.100000)"
fill="#000000" stroke="none">
<path d="M0 1220 l0 -1220 1220 0 1220 0 0 1220 0 1220 -1220 0 -1220 0 0
-1220z m1483 1056 c543 -140 890 -668 802 -1215 -75 -460 -428 -814 -893 -896
-385 -67 -796 99 -1035 420 -357 479 -260 1149 218 1508 135 102 322 180 491
207 105 16 307 5 417 -24z"/>
<path d="M823 1575 c-102 -31 -185 -104 -232 -204 -22 -47 -26 -70 -26 -141 0
-76 4 -93 33 -152 40 -82 122 -160 196 -185 32 -11 81 -18 131 -18 70 0 89 4
145 32 36 17 80 48 99 67 29 30 32 37 21 51 -32 39 -48 38 -97 -4 -68 -60
-163 -79 -262 -52 -59 17 -152 109 -169 169 -33 111 -11 204 68 282 61 62 105
80 191 80 78 0 121 -15 173 -61 l47 -41 35 23 35 24 -56 52 c-87 82 -220 113
-332 78z"/>
<path d="M1330 1225 l0 -345 45 0 45 0 2 267 3 268 180 -267 180 -267 48 -1
47 0 0 345 0 345 -45 0 -45 0 -2 -266 -3 -267 -180 267 -180 266 -47 0 -48 0
0 -345z"/>
</g>
</svg>
