<?xml version="1.0" standalone="no"?>
<!DOCTYPE svg PUBLIC "-//W3C//DTD SVG 20010904//EN"
 "http://www.w3.org/TR/2001/REC-SVG-20010904/DTD/svg10.dtd">
<svg version="1.0" xmlns="http://www.w3.org/2000/svg"
 width="251.000000pt" height="251.000000pt" viewBox="0 0 251.000000 251.000000"
 preserveAspectRatio="xMidYMid meet">
<metadata>
Created by potrace 1.11, written by Peter Selinger 2001-2013
</metadata>
<g transform="translate(0.000000,251.000000) scale(0.100000,-0.100000)"
fill="#000000" stroke="none">
<path d="M1049 2485 c-172 -29 -348 -100 -503 -203 -85 -56 -233 -201 -304
-297 -63 -85 -151 -263 -182 -365 -51 -171 -65 -410 -35 -586 74 -430 385
-803 796 -954 262 -97 591 -99 846 -7 484 177 808 614 830 1123 28 641 -416
1186 -1052 1290 -101 16 -297 16 -396 -1z m-154 -696 c99 -26 225 -106 225
-142 0 -27 -28 -57 -53 -57 -10 0 -42 16 -69 36 -62 46 -105 61 -199 70 -81 7
-167 -9 -237 -45 -60 -30 -139 -108 -177 -172 -54 -92 -68 -155 -63 -276 4
-93 8 -109 41 -175 129 -261 439 -338 666 -166 29 22 55 23 75 2 26 -26 19
-59 -19 -93 -69 -60 -141 -87 -287 -106 -67 -9 -208 20 -282 57 -79 40 -200
162 -244 244 -83 159 -83 379 0 538 67 126 226 255 353 285 56 13 222 13 270
0z m552 -16 c23 -20 49 -55 305 -393 321 -425 371 -490 379 -490 5 0 9 198 9
440 0 436 0 439 21 450 30 16 68 4 79 -26 13 -34 13 -1004 0 -1039 -5 -14 -17
-28 -25 -31 -39 -15 -64 9 -216 208 -85 111 -214 281 -288 378 -73 96 -157
206 -185 243 l-51 68 -5 -434 c-4 -347 -8 -437 -19 -450 -16 -20 -62 -22 -79
-5 -9 9 -12 143 -12 539 0 466 2 529 16 543 20 21 47 20 71 -1z"/>
</g>
</svg>
